<svg width="114" height="30" xmlns="http://www.w3.org/2000/svg"><g fill="#1481FA" fill-rule="evenodd"><g fill-rule="nonzero"><path d="M1.44 24.96l-.515.517 1.031 1.035.516-.518 5.159-5.174.516-.517-1.032-1.035-.516.518z"/><path d="M0 27.439A2.557 2.557 0 0 0 2.553 30v-1.463a1.096 1.096 0 0 1-1.094-1.098c0-.325.115-.544.499-.929L.926 25.475C.293 26.11 0 26.67 0 27.44zm16.415 0h-1.459c0 .606-.49 1.098-1.094 1.098V30a2.557 2.557 0 0 0 2.553-2.561zm0-9.786v9.786h-1.459v-9.786c-1.772-.873-2.772-1.474-3.63-2.255-1.212-1.104-1.842-2.415-1.842-4.057 0-1.958.911-3.347 2.55-4.095a.73.73 0 0 1 .17-.053c.209-.152.467-.242.746-.242.705 0 1.276.574 1.276 1.28a1.275 1.275 0 1 1-2.293.775c-.657.527-.99 1.283-.99 2.335 0 2.21 1.254 3.352 5.06 5.195h-.635c3.807-1.843 5.06-2.984 5.06-5.195 0-1.052-.333-1.808-.99-2.335a1.273 1.273 0 0 1-1.017.506 1.279 1.279 0 0 1-1.276-1.28A1.279 1.279 0 0 1 19.178 7.2c.061.01.122.03.181.057 1.626.75 2.528 2.135 2.528 4.084 0 1.642-.63 2.953-1.842 4.057-.858.781-1.858 1.382-3.63 2.255z"/><path d="M13.132 30h.73v-1.463H2.188V30h.73zm14.227-18.293C27.359 5.242 22.132 0 15.686 0 9.239 0 4.013 5.242 4.013 11.707c0 6.466 5.226 11.708 11.673 11.708 6.446 0 11.673-5.242 11.673-11.708zm-21.887 0c0-5.657 4.573-10.244 10.214-10.244 5.64 0 10.213 4.587 10.213 10.244 0 5.658-4.572 10.244-10.213 10.244-5.641 0-10.214-4.586-10.214-10.244z"/></g><path d="M41.813 18l-1.067-2.725h-3.434L36.258 18H35.25l3.387-8.602h.838L42.844 18h-1.032zm-1.377-3.621l-.997-2.654a14.217 14.217 0 0 1-.398-1.237 11.01 11.01 0 0 1-.37 1.237l-1.007 2.654h2.772zm8.427-2.906c.844 0 1.5.288 1.966.864.467.576.7 1.392.7 2.446 0 1.055-.235 1.874-.706 2.458-.47.584-1.124.876-1.96.876-.418 0-.8-.077-1.145-.231a2.154 2.154 0 0 1-.87-.712h-.07l-.206.826h-.697V8.883h.973v2.215c0 .496-.016.941-.047 1.336h.047c.453-.641 1.125-.961 2.015-.961zm-.14.814c-.664 0-1.143.19-1.436.571-.293.381-.44 1.023-.44 1.925 0 .903.151 1.548.452 1.937.3.388.783.583 1.447.583.598 0 1.043-.218 1.336-.654.293-.435.44-1.061.44-1.878 0-.835-.147-1.458-.44-1.869-.293-.41-.746-.615-1.36-.615zM56.2 18h-.972V8.883h.972V18zm6.776.117c-.95 0-1.699-.289-2.248-.867-.548-.578-.823-1.38-.823-2.408 0-1.035.255-1.858.765-2.467.51-.61 1.194-.914 2.054-.914.804 0 1.441.265 1.91.794.469.53.703 1.227.703 2.095v.615h-4.424c.02.754.21 1.326.571 1.717.362.39.87.586 1.527.586a5.17 5.17 0 0 0 2.05-.434v.867a5.147 5.147 0 0 1-.975.32 5.483 5.483 0 0 1-1.11.096zm-.264-5.842c-.516 0-.927.168-1.234.504-.306.336-.487.801-.541 1.395h3.357c0-.613-.137-1.083-.41-1.41-.274-.326-.664-.489-1.172-.489zM70.139 18h-.996V9.434h4.775v.884h-3.78v3.135h3.551v.885h-3.55V18zm8.023 0h-.973v-6.422h.973V18zm-1.055-8.162c0-.223.055-.386.164-.49a.573.573 0 0 1 .41-.155c.157 0 .292.053.405.159.113.105.17.267.17.486 0 .219-.057.382-.17.49a.567.567 0 0 1-.404.16.562.562 0 0 1-.41-.16c-.11-.108-.165-.271-.165-.49zM86.62 18v-4.154c0-.524-.119-.914-.357-1.172-.239-.258-.612-.387-1.12-.387-.671 0-1.163.182-1.476.545-.312.363-.469.963-.469 1.799V18h-.972v-6.422h.79l.159.879h.047c.199-.316.478-.561.838-.735.359-.174.76-.261 1.2-.261.774 0 1.356.186 1.747.56.39.373.586.97.586 1.79V18h-.973zm9.342-.861h-.053c-.449.652-1.12.978-2.015.978-.84 0-1.494-.287-1.96-.861-.467-.574-.7-1.39-.7-2.45 0-1.058.234-1.88.703-2.466.468-.586 1.12-.88 1.957-.88.87 0 1.539.317 2.003.95h.077l-.041-.463-.024-.45V8.882h.973V18h-.791l-.13-.861zm-1.945.164c.664 0 1.145-.18 1.444-.542.299-.362.448-.945.448-1.75v-.204c0-.91-.151-1.56-.454-1.949-.303-.388-.786-.583-1.45-.583-.57 0-1.007.222-1.31.665-.302.444-.454 1.07-.454 1.878 0 .82.15 1.44.451 1.858.301.418.743.627 1.325.627zm9.64.814c-.949 0-1.698-.289-2.247-.867-.549-.578-.823-1.38-.823-2.408 0-1.035.255-1.858.765-2.467.51-.61 1.194-.914 2.053-.914.805 0 1.442.265 1.91.794.47.53.704 1.227.704 2.095v.615h-4.424c.02.754.21 1.326.571 1.717.361.39.87.586 1.526.586.692 0 1.375-.145 2.051-.434v.867a5.147 5.147 0 0 1-.975.32 5.483 5.483 0 0 1-1.11.096zm-.263-5.842c-.516 0-.927.168-1.234.504-.306.336-.487.801-.542 1.395h3.358c0-.613-.137-1.083-.41-1.41-.274-.326-.665-.489-1.172-.489zm9.212-.814a3.8 3.8 0 0 1 .768.07l-.135.903a3.313 3.313 0 0 0-.703-.088c-.52 0-.964.21-1.333.633-.369.421-.554.947-.554 1.576V18h-.972v-6.422h.803l.11 1.19h.048c.238-.418.525-.74.861-.967.336-.227.705-.34 1.107-.34z"/></g></svg>