<svg width="40" height="40" xmlns="http://www.w3.org/2000/svg"><defs><linearGradient x1="50%" y1="0%" x2="50%" y2="100%" id="a"><stop stop-color="#FF6D00" offset="0%"/><stop stop-color="#FF6D00" offset="100%"/></linearGradient><linearGradient x1="100%" y1="50%" x2="0%" y2="50%" id="b"><stop stop-color="#F05700" offset="0%"/><stop stop-color="#DD2C00" offset="100%"/></linearGradient></defs><g fill="none" fill-rule="evenodd"><path fill="#FFF" d="M0 0h40v40H0z"/><path d="M9.46.037C7.733-.033 3.029-.173.954 1.433-.573 2.613.192 11.898.192 11.898s1.245 7.535 1.452 8.163c.208.628 1.17 2.676 1.591 3.349.83 1.325 5.95 6.418 8.163 7.744 2.213 1.325 3.389 1.953 6.778 1.814 3.39-.14 8.232-1.675 8.854-2.442.623-.767 1.591-2.442 1.73-4.326.138-1.883-1.107-6.07-1.315-8.86-.217-2.923.761-7.884 1.453-10.326.691-2.442 2.02-4.771.07-5.721-2.007-.977-5.91.322-9.477-.14C16.793.805 12.229.15 9.46.037z" fill="url(#a)" transform="translate(5 5)"/><path d="M7.935 18.788v-.632h.044c.041.277.08.53.118.75 1.277.22 2.28.394 4.547.998 2.2.587 7.123 3.581 8.518 4.695 1.562 1.247 3.833 4.108 3.833 4.108s-1.917-4.621-5.324-6.822c-3.613-2.334-3.478-1.98-3.478-1.98s2.167-1.568 5.679-.66c1.703.44 4.259 1.32 5.607 2.64 1.349 1.32 2.627 2.788 3.124 4.475.344 1.17.518 2.514.558 2.853l-1.706 2.319H17.691c.01-.027.008-.041-.006-.042-1.593-.063-4.17-1.174-6.03-2.744-2.173-1.834-2.927-4.429-3.06-4.831-.133-.403-.642-5.157-.642-5.157.005-.001-.002.01-.018.03z" fill="#FF6D00" fill-rule="nonzero"/><path d="M8.061 18.758s.51 4.754.643 5.157c.133.402.887 2.997 3.06 4.83 2.173 1.835 5.322 3.043 6.741 2.685 1.42-.358-7.128-3.97-7.749-5.177-.404-.787-1.75-4.956-2.188-7.334-.753-.122-.406-.181-.507-.161" fill="#DD2C00" fill-rule="nonzero" opacity=".5"/><path d="M23.016 8.074c-1.491.074-6.9.06-7.387-.043-1.067-.225-2.365.086-2.365.086s-1.234.03-1.66-.043c-.426-.073-9.213-1.606-9.213-1.606 0 2.201.422 5.752.706 7.439 1.277.22 2.28.393 4.547.997 2.2.587 7.123 3.581 8.518 4.695 1.562 1.247 3.833 4.108 3.833 4.108s-1.917-4.621-5.324-6.822c-3.613-2.334-3.478-1.98-3.478-1.98s2.167-1.568 5.679-.66c1.703.44 4.259 1.32 5.607 2.64 1.349 1.32 2.627 2.788 3.124 4.475.397 1.35.567 2.934.567 2.934l.64.44s-.391-4.308-.356-8.142c.037-3.894 1.026-8.789 1.168-9.375 0 0-3.116.784-4.606.857z" fill="url(#b)" fill-rule="nonzero" transform="translate(5 5)"/><path d="M11.603 28.412c1.631.488 5.699 1.926 7.431 2.377 1.732.45 7.008-.244 9.304-.61.828-.302 2.477-1.645 2.9-2.254.18.832.477 2.29-1.116 3.792-.623.588-4.874 1.141-6.141 1.225-1.186.078-3.738-.104-4.692-.312-.882-.193-3.6-1.148-4.382-1.768-.782-.62-2.7-1.658-3.304-2.45M7.381 11.58l5.942 1.727s11.316.287 15.275.107c.736-.034 3.696-.678 3.696-.678s1.143-2.64.319-3.174c-.828-.537-.637-.265-3.785-.265s-8.774.324-10.294.433c-1.52.11-5.21-.328-5.862-.547-.651-.22-2.336-.422-3.346-.629-1.009-.206-1.913-.26-1.84 1.06.044.79.106.905-.105 1.965" fill="#FFF"/></g></svg>