<svg width="167" height="54" xmlns="http://www.w3.org/2000/svg" xmlns:xlink="http://www.w3.org/1999/xlink"><defs><rect id="b" width="157" height="44" rx="6.18"/><filter x="-5.7%" y="-13.6%" width="111.5%" height="140.9%" filterUnits="objectBoundingBox" id="a"><feOffset dy="3" in="SourceAlpha" result="shadowOffsetOuter1"/><feGaussianBlur stdDeviation="2.5" in="shadowOffsetOuter1" result="shadowBlurOuter1"/><feColorMatrix values="0 0 0 0 0 0 0 0 0 0 0 0 0 0 0 0 0 0 0.140087183 0" in="shadowBlurOuter1"/></filter><path d="M11.362 0C5.087 0 0 4.777 0 10.67c0 3.358 1.652 6.353 4.234 8.31v4.068l3.869-2.154c1.032.29 2.126.446 3.259.446 6.275 0 11.362-4.777 11.362-10.67S17.637 0 11.362 0zm1.129 14.37l-2.893-3.13-5.646 3.13 6.21-6.687 2.964 3.13 5.575-3.13-6.21 6.686z" id="c"/></defs><g fill="none" fill-rule="evenodd"><g transform="translate(5 2)"><use fill="#000" filter="url(#a)" xlink:href="#b"/><use fill="#007FFF" xlink:href="#b"/></g><g transform="translate(18.428 13.524)"><mask id="d" fill="#fff"><use xlink:href="#c"/></mask><use fill="#D8D8D8" xlink:href="#c"/><path fill="#FFF" mask="url(#d)" d="M-2.367-2.4H25.09v27.848H-2.367z"/></g><path d="M60.412 29.672h1.856V17.23h-2.655l-3.601 8.935-3.602-8.935h-2.655v12.442h1.857v-9.886l4.01 9.886h.78l4.01-9.886v9.886zm4.01-4.514c0 2.836 1.968 4.738 4.64 4.738 1.449 0 2.711-.466 3.603-1.343l-.78-1.1c-.669.69-1.708 1.063-2.655 1.063-1.8 0-2.915-1.269-3.045-2.798h7.092v-.41c0-2.761-1.67-4.87-4.363-4.87-2.617 0-4.492 2.109-4.492 4.72zm4.492-3.339c1.894 0 2.692 1.492 2.73 2.686h-5.477c.093-1.231.947-2.686 2.747-2.686zm5.681 6.678c.91.933 2.228 1.4 3.732 1.4 2.358 0 3.62-1.213 3.62-2.762 0-2.07-1.856-2.5-3.416-2.854-1.114-.26-2.08-.522-2.08-1.305 0-.728.706-1.176 1.839-1.176 1.132 0 2.135.467 2.655 1.1l.742-1.174c-.761-.728-1.875-1.287-3.416-1.287-2.19 0-3.416 1.23-3.416 2.667 0 1.94 1.782 2.35 3.305 2.705 1.15.261 2.172.56 2.172 1.455 0 .765-.668 1.287-1.93 1.287-1.208 0-2.396-.615-3.008-1.287l-.799 1.231zm8.689 0c.91.933 2.228 1.4 3.731 1.4 2.358 0 3.62-1.213 3.62-2.762 0-2.07-1.856-2.5-3.416-2.854-1.113-.26-2.079-.522-2.079-1.305 0-.728.706-1.176 1.838-1.176 1.133 0 2.135.467 2.655 1.1l.743-1.174c-.762-.728-1.876-1.287-3.416-1.287-2.191 0-3.416 1.23-3.416 2.667 0 1.94 1.782 2.35 3.304 2.705 1.151.261 2.172.56 2.172 1.455 0 .765-.668 1.287-1.93 1.287-1.207 0-2.395-.615-3.008-1.287l-.798 1.231zm15 1.175h1.671v-6.08c0-2.295-1.652-3.153-3.602-3.153-1.448 0-2.673.485-3.675 1.473l.724 1.157c.798-.802 1.67-1.194 2.692-1.194 1.28 0 2.19.672 2.19 1.79v1.493c-.687-.802-1.726-1.194-2.933-1.194-1.504 0-3.119.896-3.119 2.948 0 1.977 1.634 2.984 3.119 2.984 1.207 0 2.228-.429 2.933-1.212v.988zm0-1.977c-.501.672-1.374 1.026-2.302 1.026-1.207 0-2.06-.727-2.06-1.79 0-1.064.853-1.792 2.06-1.792.928 0 1.8.355 2.302 1.026v1.53zm4.27 4.29c1.077 1.027 2.172 1.344 3.676 1.344 2.21 0 4.456-.914 4.456-4.011v-8.656h-1.671v1.306c-.724-.97-1.782-1.53-2.952-1.53-2.32 0-3.992 1.754-3.992 4.645 0 2.948 1.671 4.664 3.992 4.664 1.207 0 2.265-.653 2.952-1.548v1.175c0 1.903-1.393 2.574-2.785 2.574-1.225 0-2.135-.335-2.878-1.194l-.798 1.232zm6.46-5.073c-.463.727-1.484 1.343-2.487 1.343-1.67 0-2.71-1.306-2.71-3.172 0-1.846 1.04-3.152 2.71-3.152 1.003 0 2.024.597 2.488 1.324v3.657zm3.77-1.754c0 2.836 1.967 4.738 4.64 4.738 1.449 0 2.711-.466 3.602-1.343l-.78-1.1c-.668.69-1.707 1.063-2.654 1.063-1.801 0-2.915-1.269-3.045-2.798h7.092v-.41c0-2.761-1.67-4.87-4.363-4.87-2.618 0-4.493 2.109-4.493 4.72zm4.492-3.339c1.894 0 2.692 1.492 2.73 2.686h-5.477c.092-1.231.946-2.686 2.747-2.686zm11.288 2.985c0 3.059 1.745 5.092 5.216 5.092 3.472 0 5.199-2.014 5.199-5.111V17.23h-1.875v7.518c0 2.126-1.151 3.488-3.324 3.488-2.172 0-3.341-1.362-3.341-3.488V17.23h-1.875v7.574zm12.364 3.693c.91.933 2.228 1.4 3.731 1.4 2.358 0 3.62-1.213 3.62-2.762 0-2.07-1.856-2.5-3.415-2.854-1.114-.26-2.08-.522-2.08-1.305 0-.728.706-1.176 1.838-1.176 1.133 0 2.135.467 2.655 1.1l.743-1.174c-.761-.728-1.875-1.287-3.416-1.287-2.19 0-3.416 1.23-3.416 2.667 0 1.94 1.782 2.35 3.304 2.705 1.151.261 2.172.56 2.172 1.455 0 .765-.668 1.287-1.93 1.287-1.207 0-2.395-.615-3.008-1.287l-.798 1.231z" fill="#FFF"/></g></svg>