<svg width="129" height="42" xmlns="http://www.w3.org/2000/svg" xmlns:xlink="http://www.w3.org/1999/xlink"><defs><rect id="b" width="121" height="34" rx="4.776"/><filter x="-5.8%" y="-14.7%" width="111.6%" height="141.2%" filterUnits="objectBoundingBox" id="a"><feOffset dy="2" in="SourceAlpha" result="shadowOffsetOuter1"/><feGaussianBlur stdDeviation="2" in="shadowOffsetOuter1" result="shadowBlurOuter1"/><feColorMatrix values="0 0 0 0 0 0 0 0 0 0 0 0 0 0 0 0 0 0 0.140087183 0" in="shadowBlurOuter1"/></filter><path d="M8.757 0C3.92 0 0 3.691 0 8.245c0 2.595 1.273 4.91 3.263 6.42v3.145l2.982-1.665a9.262 9.262 0 0 0 2.512.345c4.836 0 8.756-3.691 8.756-8.245C17.513 3.691 13.593 0 8.757 0zm.87 11.103l-2.23-2.418-4.351 2.418 4.786-5.166 2.284 2.418 4.297-2.418-4.786 5.166z" id="c"/></defs><g fill="none" fill-rule="evenodd"><g transform="translate(4 2)"><use fill="#000" filter="url(#a)" xlink:href="#b"/><use fill="#007FFF" xlink:href="#b"/></g><g transform="translate(14.349 10.905)"><mask id="d" fill="#fff"><use xlink:href="#c"/></mask><use fill="#D8D8D8" xlink:href="#c"/><path fill="#FFF" mask="url(#d)" d="M-1.824-1.855h21.161v21.52H-1.824z"/></g><path d="M46.706 23.383h1.43V13.77h-2.045l-2.776 6.904-2.776-6.904h-2.046v9.614h1.43v-7.64l3.091 7.64h.601l3.09-7.64v7.64zm3.09-3.488c0 2.19 1.517 3.661 3.577 3.661 1.116 0 2.09-.36 2.776-1.038l-.6-.85c-.516.533-1.317.822-2.047.822-1.388 0-2.246-.98-2.346-2.163h5.465v-.317c0-2.133-1.287-3.762-3.362-3.762-2.018 0-3.463 1.629-3.463 3.647zm3.463-2.58c1.46 0 2.075 1.153 2.103 2.075h-4.22c.07-.951.729-2.075 2.117-2.075zm4.378 5.16c.701.72 1.717 1.081 2.876 1.081 1.817 0 2.79-.937 2.79-2.133 0-1.6-1.43-1.932-2.633-2.206-.858-.201-1.602-.403-1.602-1.009 0-.562.544-.908 1.416-.908.873 0 1.646.36 2.046.85l.573-.907c-.587-.563-1.445-.995-2.633-.995-1.688 0-2.633.951-2.633 2.061 0 1.5 1.374 1.817 2.547 2.09.887.202 1.674.433 1.674 1.125 0 .59-.515.994-1.488.994-.93 0-1.845-.475-2.318-.994l-.615.951zm6.696 0c.701.72 1.717 1.081 2.876 1.081 1.817 0 2.79-.937 2.79-2.133 0-1.6-1.43-1.932-2.632-2.206-.859-.201-1.603-.403-1.603-1.009 0-.562.544-.908 1.417-.908.872 0 1.645.36 2.046.85l.572-.907c-.587-.563-1.445-.995-2.633-.995-1.688 0-2.632.951-2.632 2.061 0 1.5 1.373 1.817 2.546 2.09.888.202 1.674.433 1.674 1.125 0 .59-.515.994-1.488.994-.93 0-1.845-.475-2.317-.994l-.616.951zm11.561.908h1.288v-4.699c0-1.773-1.273-2.436-2.776-2.436-1.116 0-2.06.375-2.833 1.139l.558.893c.615-.62 1.288-.922 2.075-.922.987 0 1.688.519 1.688 1.384v1.153c-.53-.62-1.33-.923-2.26-.923-1.16 0-2.404.692-2.404 2.278 0 1.528 1.259 2.306 2.404 2.306.93 0 1.716-.331 2.26-.937v.764zm0-1.528c-.386.52-1.059.793-1.774.793-.93 0-1.588-.562-1.588-1.384 0-.821.658-1.384 1.588-1.384.715 0 1.388.274 1.774.793v1.182zm3.291 3.316c.83.793 1.674 1.038 2.833 1.038 1.703 0 3.434-.707 3.434-3.1v-6.688h-1.288v1.009c-.558-.75-1.373-1.182-2.275-1.182-1.788 0-3.076 1.355-3.076 3.59 0 2.277 1.288 3.603 3.076 3.603.93 0 1.746-.505 2.275-1.196v.908c0 1.47-1.073 1.989-2.146 1.989-.944 0-1.645-.26-2.218-.923l-.615.952zm4.98-3.921c-.358.562-1.145 1.038-1.918 1.038-1.288 0-2.089-1.01-2.089-2.45 0-1.428.801-2.437 2.089-2.437.773 0 1.56.461 1.917 1.024v2.825zm2.904-1.355c0 2.19 1.516 3.661 3.577 3.661 1.116 0 2.089-.36 2.776-1.038l-.601-.85c-.515.533-1.317.822-2.046.822-1.388 0-2.247-.98-2.347-2.163h5.466v-.317c0-2.133-1.288-3.762-3.363-3.762-2.017 0-3.462 1.629-3.462 3.647zm3.462-2.58c1.46 0 2.075 1.153 2.104 2.075h-4.221c.071-.951.73-2.075 2.117-2.075zm8.7 2.306c0 2.364 1.345 3.935 4.02 3.935 2.676 0 4.006-1.557 4.006-3.95V13.77h-1.445v5.809c0 1.643-.887 2.695-2.56 2.695-1.675 0-2.576-1.052-2.576-2.695v-5.81H99.23v5.853zm9.529 2.854c.7.72 1.717 1.081 2.876 1.081 1.817 0 2.79-.937 2.79-2.133 0-1.6-1.431-1.932-2.633-2.206-.858-.201-1.602-.403-1.602-1.009 0-.562.543-.908 1.416-.908.873 0 1.645.36 2.046.85l.572-.907c-.586-.563-1.445-.995-2.632-.995-1.689 0-2.633.951-2.633 2.061 0 1.5 1.374 1.817 2.547 2.09.887.202 1.674.433 1.674 1.125 0 .59-.515.994-1.488.994-.93 0-1.846-.475-2.318-.994l-.615.951z" fill="#FFF"/></g></svg>