<svg width="145" height="114" xmlns="http://www.w3.org/2000/svg"><g fill="none" fill-rule="evenodd"><g transform="translate(39 2)"><path d="M17.505 53.495L3.363 67.637" stroke="#1481FA" stroke-width="4" stroke-linecap="square"/><path d="M1.953 69.047C.693 70.307 0 71.385 0 73a5 5 0 0 0 5 5m31 0a5 5 0 0 0 5-5" stroke="#1481FA" stroke-width="4"/><path d="M43 46.25V73h-4V46.25c-4.858-2.385-7.6-4.027-9.951-6.163C25.725 37.07 24 33.488 24 29c0-5.354 2.497-9.149 6.992-11.193.15-.069.305-.117.461-.146a3.5 3.5 0 1 1-.741 4.955C28.912 24.056 28 26.124 28 29c0 6.042 3.435 9.16 13.87 14.199h-1.74C50.565 38.161 54 35.042 54 29c0-2.877-.912-4.943-2.712-6.384a3.5 3.5 0 1 1-.714-4.935c.168.029.335.08.497.154C55.527 19.887 58 23.672 58 29c0 4.488-1.725 8.07-5.049 11.087-2.352 2.136-5.093 3.778-9.951 6.164z" fill="#1481FA" fill-rule="nonzero"/><path d="M6 78h28" stroke="#1481FA" stroke-width="4" stroke-linecap="square"/><circle stroke="#1481FA" stroke-width="4" cx="41" cy="30" r="30"/></g><text font-family="OpenSans-Regular, Open Sans" font-size="18" letter-spacing="6" transform="translate(0 2)"><tspan x=".28" y="111" fill="#363A3E">Able</tspan> <tspan x="61.353" y="111" fill="#1481FA">Finde</tspan> <tspan x="137.372" y="111" fill="#1481FA">r</tspan></text></g></svg>