<svg width="18" height="15" xmlns="http://www.w3.org/2000/svg"><g fill="none" fill-rule="evenodd"><path d="M-8-9h34v34H-8z"/><path d="M2.135 3.27a.696.696 0 0 0-.228-.588L.227.657V.355h5.218L9.479 9.2 13.024.355H18v.302l-1.438 1.378a.421.421 0 0 0-.16.403v10.125a.421.421 0 0 0 .16.403l1.403 1.378v.302h-7.058v-.302l1.453-1.412c.143-.142.143-.184.143-.403V4.345L8.46 14.612h-.545L3.208 4.345v6.88c-.038.29.057.58.26.79l1.89 2.295v.301H0v-.302l1.89-2.295a.916.916 0 0 0 .245-.789V3.27z" fill="#737373" fill-rule="nonzero"/></g></svg>