<?xml version="1.0" encoding="UTF-8"?>
<svg width="26px" height="26px" viewBox="0 0 26 26" version="1.1" xmlns="http://www.w3.org/2000/svg" xmlns:xlink="http://www.w3.org/1999/xlink">
    <!-- Generator: Sketch 49 (51002) - http://www.bohemiancoding.com/sketch -->
    <title>Page 1</title>
    <desc>Created with Sketch.</desc>
    <defs>
        <path d="M13,0 C5.82028417,0 0,5.38914458 0,12.0370358 C0,15.825095 1.89041017,19.2039683 4.84472029,21.4104383 L4.84472029,26 L9.27110167,23.5706851 C10.4524063,23.8976113 11.7038783,24.0740738 13,24.0740738 C20.1797158,24.0740738 26,18.6849325 26,12.0370358 C26,5.38914458 20.1797158,0 13,0 L13,0 Z M14.2919237,16.2098788 L10.9813654,12.6790138 L4.52173908,16.2098788 L11.62733,8.66666667 L15.0186346,12.1975317 L21.3975179,8.66666667 L14.2919237,16.2098788 L14.2919237,16.2098788 Z" id="path-1"></path>
    </defs>
    <g id="Page-1" stroke="none" stroke-width="1" fill="none" fill-rule="evenodd">
        <g id="Af-Landin-messager-web" transform="translate(-615.000000, -1157.000000)">
            <g id="Block-#2" transform="translate(0.000000, 768.000000)">
                <g id="Group-7" transform="translate(615.000000, 181.000000)">
                    <g id="Group-3" transform="translate(0.000000, 204.000000)">
                        <g id="Page-1" transform="translate(0.000000, 4.000000)">
                            <mask id="mask-2" fill="white">
                                <use xlink:href="#path-1"></use>
                            </mask>
                            <g id="Clip-2"></g>
                            <polygon id="Fill-1" fill="#007FFF" mask="url(#mask-2)" points="-2.70833333 -2.70833333 28.7083333 -2.70833333 28.7083333 28.7083333 -2.70833333 28.7083333"></polygon>
                        </g>
                    </g>
                </g>
            </g>
        </g>
    </g>
</svg>