<?xml version="1.0" encoding="UTF-8"?>
<svg width="294px" height="589px" viewBox="0 0 294 589" version="1.1" xmlns="http://www.w3.org/2000/svg" xmlns:xlink="http://www.w3.org/1999/xlink">
    <!-- Generator: Sketch 49.1 (51147) - http://www.bohemiancoding.com/sketch -->
    <title>Group 6</title>
    <desc>Created with Sketch.</desc>
    <defs></defs>
    <g id="Page-1" stroke="none" stroke-width="1" fill="none" fill-rule="evenodd">
        <g id="Group-6" transform="translate(2.000000, 2.000000)" fill="#FFFFFF" stroke="#F3F3F3" stroke-width="3.6">
            <path d="M44.612395,0 L245.387605,7.10542736e-15 C270.02635,2.57936326e-15 290,19.9736496 290,44.612395 L290,540.387605 C290,565.02635 270.02635,585 245.387605,585 L44.612395,585 C19.9736496,585 3.01737607e-15,565.02635 0,540.387605 L0,44.612395 C-3.01737607e-15,19.9736496 19.9736496,-2.38956453e-14 44.612395,-2.84217094e-14 Z M18.0124224,314.1 L18.0124224,159.3 L18.0124224,540.9 C18.0124224,554.500935 29.5963537,566.1 43.2298137,566.1 L245.869565,566.1 C259.503025,566.1 271.086957,554.500935 271.086957,540.9 L271.086957,308.7 L271.086957,44.1 C271.086957,29.5990655 259.503025,18 245.869565,18 L219.304119,18 C217.064234,18 215.248447,19.8157863 215.248447,22.0556723 L215.248447,22.5 C215.297363,31.8002148 208.057406,39.0496307 199.037267,38.7 L89.1614907,38.7 C80.2334284,39.0496307 72.9934713,31.8002148 72.9503106,22.5 L72.9503106,22.0556723 C72.9503106,19.8157863 71.1345242,18 68.8946383,18 L66.6459627,18 L59.4409938,18 L54.0372671,18 C53.5883952,18 50.3542159,18 43.2298137,18 C29.5963537,18 18.0124224,29.5990655 18.0124224,44.1 L18.0124224,162.9 L18.0124224,314.1 Z" id="base"></path>
        </g>
    </g>
</svg>