<?xml version="1.0" encoding="UTF-8"?>
<svg width="56px" height="56px" viewBox="0 0 56 56" version="1.1" xmlns="http://www.w3.org/2000/svg" xmlns:xlink="http://www.w3.org/1999/xlink">
    <!-- Generator: Sketch 49.3 (51167) - http://www.bohemiancoding.com/sketch -->
    <title>Group</title>
    <desc>Created with Sketch.</desc>
    <defs>
        <path d="M28,56 C43.463973,56 56,43.463973 56,28 C56,12.536027 43.463973,0 28,0 C12.536027,0 0,12.536027 0,28 C0,43.463973 12.536027,56 28,56 Z" id="path-1"></path>
    </defs>
    <g id="Page-1" stroke="none" stroke-width="1" fill="none" fill-rule="evenodd">
        <g id="Stories" transform="translate(-572.000000, -688.000000)">
            <g id="Group" transform="translate(572.000000, 688.000000)">
                <g id="Icon">
                    <use fill-opacity="0.2" fill="#000000" fill-rule="evenodd" xlink:href="#path-1"></use>
                    <path stroke="#FFFFFF" stroke-width="1" d="M28,55.5 C43.1878306,55.5 55.5,43.1878306 55.5,28 C55.5,12.8121694 43.1878306,0.5 28,0.5 C12.8121694,0.5 0.5,12.8121694 0.5,28 C0.5,43.1878306 12.8121694,55.5 28,55.5 Z"></path>
                </g>
                <polygon id="Back-arrow" fill="#FFFFFF" transform="translate(28.000000, 29.500000) rotate(-90.000000) translate(-28.000000, -29.500000) " points="31.715 20.5 22.5 29.5 31.715 38.5 33.5 36.725 26.102 29.5 33.5 22.275"></polygon>
            </g>
        </g>
    </g>
</svg>